<svg width="16" height="16" viewBox="0 0 16 16" fill="none" xmlns="http://www.w3.org/2000/svg">
<path d="M11.6465 3.64651C11.8418 3.45125 12.1583 3.45125 12.3535 3.64651C12.5488 3.84177 12.5488 4.15829 12.3535 4.35354L8.70705 8.00002L12.3535 11.6465C12.5488 11.8418 12.5488 12.1583 12.3535 12.3535C12.1583 12.5488 11.8418 12.5488 11.6465 12.3535L8.00002 8.70705L4.35354 12.3535C4.15829 12.5488 3.84177 12.5488 3.64651 12.3535C3.45125 12.1583 3.45125 11.8418 3.64651 11.6465L7.29299 8.00002L3.64651 4.35354C3.45125 4.15828 3.45125 3.84177 3.64651 3.64651C3.84177 3.45125 4.15828 3.45125 4.35354 3.64651L8.00002 7.29299L11.6465 3.64651Z" fill="#41485E"/>
</svg>
