<svg width="16" height="16" viewBox="0 0 16 16" fill="none" xmlns="http://www.w3.org/2000/svg">
<path d="M4.00018 2.99994C3.4479 2.99994 3.00018 3.44765 3.00018 3.99994V11.9999C3.00018 12.5522 3.4479 12.9999 4.00018 12.9999V9.49994C4.00018 8.67151 4.67176 7.99994 5.50018 7.99994H10.5002C11.3286 7.99994 12.0002 8.67151 12.0002 9.49994V12.9999C12.5525 12.9999 13.0002 12.5522 13.0002 11.9999V5.62126C13.0002 5.35604 12.8948 5.10169 12.7073 4.91415L11.086 3.29283C10.8984 3.1053 10.6441 2.99994 10.3789 2.99994H10.0002V4.49994C10.0002 5.32837 9.32861 5.99994 8.50018 5.99994H6.50018C5.67176 5.99994 5.00018 5.32837 5.00018 4.49994V2.99994H4.00018ZM6.00018 2.99994V4.49994C6.00018 4.77608 6.22404 4.99994 6.50018 4.99994H8.50018C8.77633 4.99994 9.00018 4.77608 9.00018 4.49994V2.99994H6.00018ZM11.0002 12.9999V9.49994C11.0002 9.2238 10.7763 8.99994 10.5002 8.99994H5.50018C5.22404 8.99994 5.00018 9.2238 5.00018 9.49994V12.9999H11.0002ZM2.00018 3.99994C2.00018 2.89537 2.89561 1.99994 4.00018 1.99994H10.3789C10.9093 1.99994 11.418 2.21065 11.7931 2.58573L13.4144 4.20705C13.7895 4.58212 14.0002 5.09083 14.0002 5.62126V11.9999C14.0002 13.1045 13.1048 13.9999 12.0002 13.9999H4.00018C2.89561 13.9999 2.00018 13.1045 2.00018 11.9999V3.99994Z" fill="#41485E"/>
</svg>
